<?xml version="1.0" encoding="utf-8"?>
<!-- Svg Vector Icons : http://www.onlinewebfonts.com/icon -->
<!DOCTYPE svg PUBLIC "-//W3C//DTD SVG 1.1//EN" "http://www.w3.org/Graphics/SVG/1.1/DTD/svg11.dtd">
<svg version="1.1" xmlns="http://www.w3.org/2000/svg" xmlns:xlink="http://www.w3.org/1999/xlink" x="0px" y="0px" viewBox="0 0 1000 1000" enable-background="new 0 0 1000 1000" xml:space="preserve">
<metadata> Svg Vector Icons : http://www.onlinewebfonts.com/icon </metadata>
<g><g transform="translate(0.000000,512.000000) scale(0.100000,-0.100000)"><path d="M406.2,4982.7c-76.6-51.7-93.8-86.1-95.7-174.2c0-67,11.5-93.8,55.5-139.7l55.5-55.5h290.9h290.9l55.5,55.5c78.5,78.5,78.5,187.6,0,273.7l-55.5,63.2l-275.6,5.7C492.4,5017.1,448.4,5013.3,406.2,4982.7z"/><path d="M1631.2,4982.7c-76.6-51.7-93.8-86.1-95.7-174.2c0-67,11.5-93.8,55.5-139.7l55.5-55.5h290.9h290.9l55.5,55.5c78.5,78.5,78.5,187.6,0,273.7l-55.5,63.2l-275.6,5.7C1717.4,5017.1,1673.4,5013.3,1631.2,4982.7z"/><path d="M2856.2,4982.7c-76.6-51.7-93.8-86.1-95.7-174.2c0-67,11.5-93.8,55.5-139.7l55.5-55.5h290.9h290.9l55.5,55.5c78.5,78.5,78.5,187.6,0,273.7l-55.5,63.2l-275.6,5.7C2942.4,5017.1,2898.4,5013.3,2856.2,4982.7z"/><path d="M4081.2,4982.7c-76.6-51.7-93.8-86.1-95.7-174.2c0-67,11.5-93.8,55.5-139.7l55.5-55.5h290.9h290.9l55.5,55.5c78.5,78.5,78.5,187.6,0,273.7l-55.5,63.2l-275.6,5.7C4167.4,5017.1,4123.4,5013.3,4081.2,4982.7z"/><path d="M5306.2,4982.7c-76.6-51.7-93.8-86.1-95.7-174.2c0-67,11.5-93.8,55.5-139.7l55.5-55.5h290.9h290.9l55.5,55.5c82.3,82.3,78.5,193.3-9.6,281.4l-65.1,65.1h-266.1C5400,5015.2,5344.5,5009.5,5306.2,4982.7z"/><path d="M6531.2,4982.7c-76.6-51.7-93.8-86.1-95.7-174.2c0-67,11.5-93.8,55.5-139.7l55.5-55.5h290.9h290.9l55.5,55.5c82.3,82.3,78.5,193.3-9.6,281.4l-65.1,65.1h-266.1C6625,5015.2,6569.5,5009.5,6531.2,4982.7z"/><path d="M7547.6,4777.9c-82.3-45.9-95.7-99.5-97.6-371.3c0-342.6,32.5-405.8,210.5-405.8c63.2,0,91.9,11.5,135.9,55.5l55.5,55.5V4397c0,239.3-5.7,289-34.5,323.5C7750.5,4804.7,7637.6,4827.6,7547.6,4777.9z"/><path d="M222.5,4385.5c-23-9.6-59.3-42.1-82.3-70.8c-36.4-45.9-40.2-74.6-40.2-321.6c0-298.6,9.6-331.1,118.7-386.6c80.4-42.1,172.3-21.1,233.5,51.7c47.9,57.4,49.8,67,49.8,335c0,273.7,0,275.6-51.7,333C392.8,4389.3,293.3,4414.2,222.5,4385.5z"/><path d="M7547.6,3552.9c-82.3-45.9-95.7-99.5-97.6-371.3c0-342.6,32.5-405.8,210.5-405.8c63.2,0,91.9,11.5,135.9,55.5l55.5,55.5V3172c0,239.3-5.7,289-34.5,323.5C7750.5,3579.7,7637.6,3602.6,7547.6,3552.9z"/><path d="M222.5,3160.5c-23-9.6-59.3-42.1-82.3-70.8c-36.4-45.9-40.2-74.6-40.2-321.6c0-298.6,9.6-331.1,118.7-386.6c80.4-42.1,172.3-21.1,233.5,51.7c47.9,57.4,49.8,67,49.8,335c0,273.7,0,275.6-51.7,333C392.8,3164.3,293.3,3189.2,222.5,3160.5z"/><path d="M2856.2,2396.8c-82.3-40.2-118.7-107.2-107.2-195.2c3.8-36.4,557-1349.4,1225-2918.9c886.2-2076.8,1230.7-2863.4,1265.2-2894.1c53.6-45.9,157-59.3,218.2-26.8c19.1,11.5,273.7,287.1,566.6,614.4l534,595.3l1173.3-1173.3l1173.3-1173.3h86.1h86.1l411.5,411.5C9856-3994.3,9900-3944.5,9900-3889c0,34.4-11.5,86.1-26.8,114.8c-15.3,28.7-545.5,568.5-1177.1,1200.1c-633.5,631.6-1150.3,1154.2-1150.3,1161.8c0,7.6,279.4,258.4,622.1,558.9c553.2,490,622.1,555.1,633.5,618.2c17.2,91.9-30.6,181.8-120.6,224C8498.9,75,2971.1,2431.2,2948.1,2431.2C2934.7,2431.2,2892.6,2415.9,2856.2,2396.8z M5765.6,794.7C7084.4,232,8175.4-237,8190.7-246.6c23-11.5-107.2-135.9-532.1-507.2c-310.1-271.8-578.1-516.8-595.3-543.6c-19.1-28.7-34.5-80.4-34.5-116.8c0-74.6-111,42.1,1372.4-1454.7l999.2-1006.8l-204.8-206.7l-204.8-204.8L7813.7-3110L6636.5-1932.8h-84.2c-101.4,0-109.1-5.7-708.2-675.7c-223.9-250.8-415.3-449.8-423-440.2c-9.6,11.5-1956.2,4561.2-2082.5,4865.5c-5.7,17.2-1.9,23,9.6,15.3C3359.6,1824.5,4446.8,1357.4,5765.6,794.7z"/><path d="M7547.6,2327.9c-82.3-45.9-95.7-99.5-97.6-371.3c0-342.6,32.5-405.8,210.5-405.8c63.2,0,91.9,11.5,135.9,55.5l55.5,55.5v287.1V2236l-59.3,59.3C7727.5,2360.4,7629.9,2373.8,7547.6,2327.9z"/><path d="M222.5,1935.5c-23-9.6-59.3-42.1-82.3-70.8c-36.4-45.9-40.2-74.6-40.2-321.6c0-298.6,9.6-331.1,118.7-386.6c80.4-42.1,172.3-21.1,233.5,51.7c47.9,57.4,49.8,67,49.8,335c0,273.7,0,275.6-51.7,333C392.8,1939.3,293.3,1964.2,222.5,1935.5z"/><path d="M222.5,708.6c-23-7.7-59.3-40.2-82.3-68.9C103.8,593.7,100,565,100,318.1C100,19.5,109.6-13,218.7-68.5c80.4-42.1,172.3-21.1,233.5,51.7C500,40.6,502,50.1,502,320v277.5l-65.1,65.1C369.9,729.6,306.7,743,222.5,708.6z"/><path d="M222.5-516.4c-23-7.7-59.3-40.2-82.3-68.9C103.8-631.3,100-660,100-906.9c0-298.6,9.6-331.1,118.7-386.6c80.4-42.1,172.3-21.1,233.5,51.7c47.9,57.4,49.8,67,49.8,336.9v277.5l-65.1,65.1C369.9-495.4,306.7-482,222.5-516.4z"/><path d="M222.5-1741.4c-23-7.7-59.3-40.2-82.3-68.9c-36.4-45.9-40.2-74.7-40.2-321.6c0-298.6,9.6-331.1,118.7-386.6c80.4-42.1,172.3-21.1,233.5,51.7c47.9,57.4,49.8,67,49.8,336.9v277.5l-65.1,65.1C369.9-1720.4,306.7-1707,222.5-1741.4z"/><path d="M222.5-2966.4c-23-7.7-59.3-40.2-82.3-68.9c-36.4-45.9-40.2-74.7-40.2-321.6c0-298.6,9.6-331.1,118.7-386.6c80.4-42.1,172.3-21.1,233.5,51.7c47.9,57.4,49.8,67,49.8,336.9v277.5l-65.1,65.1C369.9-2945.4,306.7-2932,222.5-2966.4z"/><path d="M835-3578.9c-61.2-24.9-122.5-112.9-122.5-176.1c0-68.9,45.9-160.8,93.8-187.6c21.1-9.6,160.8-19.1,313.9-19.1c248.8,0,281.4,3.8,325.4,38.3c72.7,57.4,99.5,153.1,63.2,235.4c-44,109.1-105.3,128.2-388.6,126.3C986.2-3561.7,856.1-3569.4,835-3578.9z"/><path d="M2060-3578.9c-61.2-24.9-122.5-112.9-122.5-176.1c0-68.9,45.9-160.8,93.8-187.6c21.1-9.6,160.8-19.1,313.9-19.1c248.8,0,281.4,3.8,325.4,38.3c72.7,57.4,99.5,153.1,63.2,235.4c-44,109.1-105.3,128.2-388.6,126.3C2211.2-3561.7,2081.1-3569.4,2060-3578.9z"/><path d="M3285-3578.9c-61.2-24.9-122.5-112.9-122.5-176.1c0-68.9,45.9-160.8,93.8-187.6c21.1-9.6,160.8-19.1,313.9-19.1c248.8,0,281.4,3.8,325.4,38.3c72.7,57.4,99.5,153.1,63.2,235.4c-44,109.1-105.3,128.2-388.6,126.3C3436.2-3561.7,3306.1-3569.4,3285-3578.9z"/><path d="M4510-3578.9c-61.2-24.9-122.5-112.9-122.5-176.1c0-68.9,45.9-160.8,93.8-187.6c21.1-9.6,160.8-19.1,313.9-19.1c248.8,0,281.4,3.8,325.4,38.3c72.7,57.4,99.5,153.1,63.2,235.4c-44,109.1-105.3,128.2-388.5,126.3C4661.2-3561.7,4531.1-3569.4,4510-3578.9z"/></g></g>
</svg>